<svg width="130" height="143" viewBox="0 0 130 143" fill="none" xmlns="http://www.w3.org/2000/svg">
<path d="M2.84023 35.9505C6.13032 30.2731 56.3142 0.5 63.8681 0.5C71.422 0.5 123.556 30.2071 126.884 35.9505C130.212 41.6939 130.528 99.3083 126.884 105.597C123.239 111.886 73.8738 142.5 63.8681 142.5C53.8624 142.5 5.786 110.68 2.84023 105.597C-0.105541 100.514 -0.449866 41.6279 2.84023 35.9505Z" fill="#6356F0" stroke="black"/>
<path d="M66 106.5C60.7333 106.5 55.8667 105.633 51.4 103.9C47 102.1 43.1667 99.6 39.9 96.4C36.7 93.1333 34.2 89.3 32.4 84.9C30.6667 80.4333 29.8 75.5667 29.8 70.3C29.8 65.1 30.7 60.3 32.5 55.9C34.3667 51.5 36.9667 47.6667 40.3 44.4C43.6333 41.1333 47.5333 38.6 52 36.8C56.5333 35 61.4333 34.1 66.7 34.1C70.0333 34.1 73.3 34.5333 76.5 35.4C79.7 36.2667 82.6667 37.5667 85.4 39.3C88.2 40.9667 90.6 43 92.6 45.4L82.1 57.3C80.0333 55.0333 77.7 53.2667 75.1 52C72.5667 50.7333 69.7333 50.1 66.6 50.1C63.9333 50.1 61.4 50.5667 59 51.5C56.6667 52.4333 54.6333 53.8 52.9 55.6C51.1667 57.4 49.8 59.5333 48.8 62C47.8 64.4667 47.3 67.2667 47.3 70.4C47.3 73.4667 47.7667 76.2667 48.7 78.8C49.7 81.2667 51.1 83.4 52.9 85.2C54.7667 86.9333 56.9667 88.2667 59.5 89.2C62.1 90.1333 64.9667 90.6 68.1 90.6C70.1667 90.6 72.1333 90.3333 74 89.8C75.9333 89.2 77.7333 88.3667 79.4 87.3C81.0667 86.2333 82.5 85.0333 83.7 83.7L92 96.9C90.4 98.7 88.2 100.333 85.4 101.8C82.6667 103.267 79.6 104.433 76.2 105.3C72.8667 106.1 69.4667 106.5 66 106.5Z" fill="white"/>
<path d="M106.6 76.4C106.067 76.4 105.467 76.3333 104.8 76.2C104.133 76.0333 103.483 75.8333 102.85 75.6C102.217 75.3667 101.617 75.1333 101.05 74.9C100.55 74.6667 100.017 74.45 99.45 74.25C98.9167 74.05 98.4 73.8833 97.9 73.75C97.4333 73.6167 97.05 73.55 96.75 73.55C96.1167 73.55 95.6333 73.8167 95.3 74.35C94.9667 74.8833 94.8 75.65 94.8 76.65H89.05C89.05 73.4833 89.6667 71.05 90.9 69.35C92.1667 67.6167 94.1 66.75 96.7 66.75C97.2667 66.75 97.8667 66.85 98.5 67.05C99.1667 67.2167 99.8167 67.4333 100.45 67.7C101.083 67.9333 101.65 68.1667 102.15 68.4C102.583 68.5667 103.033 68.75 103.5 68.95C104 69.15 104.467 69.3167 104.9 69.45C105.367 69.5833 105.767 69.65 106.1 69.65C106.667 69.65 107.117 69.3833 107.45 68.85C107.817 68.2833 107.967 67.5833 107.9 66.75L113.65 66.85C113.65 68.95 113.383 70.7167 112.85 72.15C112.317 73.55 111.533 74.6167 110.5 75.35C109.467 76.05 108.167 76.4 106.6 76.4Z" fill="white"/>
</svg>
